<svg version="1" xmlns="http://www.w3.org/2000/svg" width="933.333" height="933.333" viewBox="0 0 700.000000 700.000000"><path d="M325.5 1.6c-16.4 1.6-25.5 2.8-35.2 4.5C163 28.6 57.9 119.9 18 242.5c-20 61.7-22.5 129.6-7 192.2 23.7 95.8 85.7 176.4 172.5 224 36.4 20.1 75.9 33.1 118.7 39.3 13.6 2 17.9 2.1 54 1.7 37.5-.3 40-.5 53.8-3.1 38.8-7.2 71.3-18.2 102.8-34.7 95.4-49.9 162.6-140.2 182.6-245.4 4.3-23.1 4.8-31.3 4.3-72-.4-35.5-.6-38.9-3-52.3-16-87.3-59.4-160.6-127.5-215.2-49.7-39.8-108.8-64.8-174.7-73.6-10.4-1.5-59.8-2.7-69-1.8zm114 188.9c28.5 48.4 52 88.3 52.2 88.7.2.5-23.2.8-52.1.8H387v-89.2c0-49 .2-88.9.4-88.7.2.2 23.6 40 52.1 88.4zm-124.5 1V280H210.2l52-88.5c28.7-48.7 52.3-88.5 52.5-88.5.1 0 .3 39.8.3 88.5zm0 237V507H196c-65.5 0-119-.2-119-.4s20.5-35.2 45.5-77.7l45.6-77.4 41.2-.5c22.7-.3 55.7-.6 73.5-.8l32.2-.2v78.5zm219.2-76.6c.9.8 89.7 151.8 90.5 153.7.4 1.2-16.6 1.4-118.6 1.4H387V349.8l73.3.7c40.2.4 73.5 1 73.9 1.4z"/></svg>